<?xml version="1.0" standalone="no"?>
<!DOCTYPE svg PUBLIC "-//W3C//DTD SVG 20010904//EN"
 "http://www.w3.org/TR/2001/REC-SVG-20010904/DTD/svg10.dtd">
<svg version="1.0" xmlns="http://www.w3.org/2000/svg"
 width="463.000000pt" height="463.000000pt" viewBox="0 0 463.000000 463.000000"
 preserveAspectRatio="xMidYMid meet">
<metadata>
Created by potrace 1.14, written by Peter Selinger 2001-2017
</metadata>
<g transform="translate(0.000000,463.000000) scale(0.100000,-0.100000)"
fill="#000000" stroke="none">
<path d="M2304 4616 c-11 -7 -46 -28 -79 -46 -33 -18 -190 -107 -350 -198
-159 -91 -373 -212 -475 -269 -102 -58 -214 -122 -250 -143 -65 -37 -254 -145
-340 -193 -25 -14 -126 -71 -225 -127 -99 -57 -197 -112 -217 -123 l-38 -21 0
-1181 0 -1180 48 -26 c26 -14 108 -59 182 -101 74 -41 171 -94 215 -118 44
-24 97 -54 117 -67 21 -12 40 -23 42 -23 2 0 55 -29 118 -63 131 -74 118 -67
563 -312 187 -103 419 -231 515 -285 96 -53 182 -99 191 -102 10 -4 40 8 73
28 31 19 59 34 61 34 2 0 38 20 79 45 42 25 78 45 81 45 2 0 26 13 53 29 26
15 70 40 96 55 26 14 116 65 199 112 279 158 298 169 367 206 30 17 60 34 65
38 6 4 35 21 65 38 30 16 170 95 310 174 140 79 262 147 270 151 8 4 38 21 65
37 28 16 80 47 118 67 l67 37 0 1182 0 1182 -27 13 c-16 8 -59 33 -98 56 -70
41 -518 301 -880 510 -104 60 -332 192 -505 293 -173 100 -335 194 -360 208
-25 13 -49 28 -55 32 -22 16 -44 18 -61 6z m-238 -1994 c-3 -2 -18 5 -34 17
-17 12 -33 21 -36 21 -4 0 -12 5 -19 10 -7 6 -84 54 -172 106 -88 52 -167 99
-175 105 -8 5 -53 32 -100 60 -79 48 -107 65 -171 101 -13 7 -26 16 -29 19 -3
3 -9 8 -15 10 -8 3 -65 37 -306 181 -16 10 -42 26 -59 35 -144 86 -209 128
-202 134 4 4 33 21 66 39 32 17 81 45 108 61 27 16 51 29 54 29 3 0 18 8 32
18 15 11 52 32 82 49 30 17 71 39 90 50 55 32 790 448 840 476 l45 25 3 -771
c1 -423 0 -772 -2 -775z m797 999 c149 -87 337 -195 417 -241 271 -155 272
-155 252 -172 -9 -8 -104 -66 -210 -129 -105 -63 -276 -165 -380 -227 -103
-62 -194 -116 -202 -119 -8 -4 -30 -17 -49 -30 -18 -12 -36 -21 -40 -19 -3 2
-6 231 -6 508 l0 503 -35 5 c-31 4 -35 8 -35 35 -1 31 3 45 11 45 2 0 127 -71
277 -159z m-1535 -876 c393 -235 710 -430 705 -435 -4 -4 -199 -121 -433 -260
-234 -139 -441 -263 -460 -275 -67 -43 -528 -315 -534 -315 -3 0 -6 387 -6
861 0 473 3 858 8 856 4 -2 328 -196 720 -432z m2377 -436 c0 -368 -2 -669 -3
-669 -7 0 -1027 613 -1043 627 -14 12 -20 87 -8 97 2 1 195 117 429 256 234
139 436 260 450 269 77 49 166 98 170 94 2 -2 4 -305 5 -674z m-1635 -1059 c0
-477 -4 -760 -10 -760 -5 0 -31 13 -57 28 -26 16 -84 48 -128 72 -44 24 -98
54 -120 66 -22 13 -58 32 -80 44 -36 20 -492 272 -560 310 -16 9 -105 58 -197
109 -92 51 -170 96 -173 100 -3 5 2 11 10 15 8 3 223 130 477 282 255 153 472
282 483 288 42 24 270 161 275 166 8 9 65 39 73 40 4 0 7 -342 7 -760z m620
681 c3 -3 14 -11 25 -17 23 -12 828 -495 833 -499 2 -2 -32 -22 -75 -45 -43
-24 -94 -52 -113 -63 -19 -11 -60 -34 -90 -50 -44 -24 -313 -175 -570 -319
-19 -11 -36 -22 -38 -23 -2 -2 4 -15 14 -30 10 -15 13 -29 8 -34 -23 -20 -103
-60 -107 -54 -2 5 -3 26 -3 48 1 38 3 40 36 45 l35 5 0 527 c0 524 0 528 20
522 11 -4 22 -9 25 -13z"/>
</g>
</svg>
