<?xml version="1.0" standalone="no"?>
<!DOCTYPE svg PUBLIC "-//W3C//DTD SVG 20010904//EN"
 "http://www.w3.org/TR/2001/REC-SVG-20010904/DTD/svg10.dtd">
<svg version="1.0" xmlns="http://www.w3.org/2000/svg"
 width="459.000000pt" height="459.000000pt" viewBox="0 0 459.000000 459.000000"
 preserveAspectRatio="xMidYMid meet">
<metadata>
Created by potrace 1.14, written by Peter Selinger 2001-2017
</metadata>
<g transform="translate(0.000000,459.000000) scale(0.100000,-0.100000)"
fill="#000000" stroke="none">
<path d="M2238 4560 c-26 -16 -73 -43 -105 -61 -32 -18 -220 -124 -418 -237
-198 -112 -432 -245 -520 -295 -88 -49 -304 -172 -480 -272 -176 -100 -339
-192 -362 -205 l-43 -24 0 -1180 0 -1181 106 -59 c59 -33 125 -69 148 -81 23
-13 163 -90 311 -172 149 -82 295 -163 325 -180 30 -17 87 -48 125 -68 39 -21
108 -60 154 -87 46 -26 85 -48 87 -48 2 0 106 -57 231 -127 125 -69 246 -136
268 -148 120 -65 164 -90 201 -112 l42 -24 48 27 c44 24 139 78 219 124 17 9
64 36 105 59 41 23 82 46 90 51 16 10 356 201 495 278 44 24 109 61 145 82 36
20 85 49 110 62 25 14 135 76 245 139 110 62 229 129 265 149 36 20 104 59
152 86 l88 49 0 1181 0 1182 -32 16 c-18 10 -73 41 -123 70 -49 29 -348 202
-664 385 -316 183 -588 342 -605 352 -17 10 -37 22 -45 26 -8 3 -117 66 -244
140 -126 73 -239 133 -251 132 -11 0 -42 -13 -68 -29z m577 -565 c121 -70 234
-135 250 -145 40 -23 529 -305 630 -364 44 -25 87 -51 95 -56 8 -6 25 -14 37
-19 11 -6 24 -14 27 -19 5 -9 -228 -155 -249 -155 -9 0 -113 58 -233 130 -20
12 -44 25 -52 30 -8 4 -59 33 -113 65 -54 32 -100 58 -102 58 -1 0 -42 24 -91
53 -49 29 -114 67 -144 84 -99 55 -254 145 -287 167 l-33 21 0 153 0 152 23
-14 c12 -8 121 -71 242 -141z m-767 -1021 l-3 -385 -308 185 c-170 103 -313
186 -318 186 -5 0 -9 5 -9 10 0 6 -4 10 -8 10 -13 0 -667 394 -670 403 -2 7
282 177 295 177 1 0 32 18 68 40 36 22 67 40 69 40 2 0 52 28 112 63 60 35
138 79 174 99 36 20 184 104 330 187 l265 151 3 -391 c1 -215 1 -564 0 -775z
m1040 476 c243 -140 442 -257 442 -260 0 -3 -15 -14 -32 -24 -18 -11 -217
-129 -442 -263 -225 -135 -414 -247 -420 -249 -8 -3 -11 131 -11 503 l0 508
-37 3 c-38 3 -38 3 -38 48 l0 44 48 -27 c27 -16 247 -143 490 -283z m-1778
-735 c382 -229 699 -420 703 -424 5 -5 -63 -50 -150 -102 -195 -116 -178 -105
-265 -158 -40 -24 -269 -161 -508 -303 -239 -143 -447 -268 -462 -279 -15 -10
-32 -19 -38 -19 -7 0 -10 271 -10 860 0 818 1 860 18 851 9 -5 330 -197 712
-426z m2688 -859 l-3 -436 -120 72 -120 73 0 720 0 720 120 73 120 72 3 -429
c1 -236 1 -626 0 -865z m-313 423 c0 -368 -1 -669 -3 -669 -3 0 -973 579
-1050 626 -10 6 -8 86 1 95 23 21 1042 627 1047 623 2 -3 4 -306 5 -675z
m-1635 -1059 c0 -418 -3 -760 -6 -760 -3 0 -34 15 -67 34 -34 18 -89 48 -122
66 -33 18 -77 42 -98 54 -22 11 -64 35 -95 52 -88 48 -501 277 -557 309 -27
15 -81 45 -120 66 -255 138 -265 144 -247 160 10 9 24 18 32 22 8 3 296 175
640 381 344 206 628 375 633 376 4 0 7 -342 7 -760z m970 470 c210 -126 387
-230 391 -230 5 0 9 -4 9 -10 0 -5 4 -10 10 -10 5 0 29 -12 54 -27 l44 -27
-23 -18 c-13 -10 -26 -18 -30 -18 -3 0 -56 -29 -118 -63 -62 -35 -139 -79
-172 -97 -33 -18 -73 -41 -90 -50 -16 -9 -66 -36 -110 -60 -44 -23 -84 -46
-90 -50 -5 -4 -32 -20 -60 -35 -154 -84 -195 -110 -191 -122 3 -7 -13 -23 -38
-38 -53 -31 -56 -31 -56 0 0 22 4 25 38 25 l37 0 0 530 c0 292 2 530 6 530 3
0 178 -103 389 -230z m660 -395 c30 -18 83 -50 118 -70 34 -20 62 -38 62 -41
0 -2 -10 -9 -22 -14 -13 -5 -48 -24 -80 -42 -48 -28 -202 -116 -315 -180 -18
-10 -48 -26 -65 -37 -18 -10 -195 -109 -393 -221 -198 -111 -375 -211 -393
-221 -18 -11 -35 -19 -37 -19 -3 0 -5 62 -5 138 l0 139 27 14 c15 8 135 77
268 153 132 76 341 197 465 269 124 71 239 138 255 148 41 24 52 23 115 -16z"/>
</g>
</svg>
